<svg width="42" height="42" viewBox="0 0 42 42" fill="none" xmlns="http://www.w3.org/2000/svg">
<path d="M32.0248 9.99227C31.3423 9.30977 30.2398 9.30977 29.5573 9.99227L20.9998 18.5323L12.4423 9.97477C11.7598 9.29227 10.6573 9.29227 9.97477 9.97477C9.29227 10.6573 9.29227 11.7598 9.97477 12.4423L18.5323 20.9998L9.97477 29.5573C9.29227 30.2398 9.29227 31.3423 9.97477 32.0248C10.6573 32.7073 11.7598 32.7073 12.4423 32.0248L20.9998 23.4673L29.5573 32.0248C30.2398 32.7073 31.3423 32.7073 32.0248 32.0248C32.7073 31.3423 32.7073 30.2398 32.0248 29.5573L23.4673 20.9998L32.0248 12.4423C32.6898 11.7773 32.6898 10.6573 32.0248 9.99227Z" fill="#FFEF9C"/>
</svg>
