<svg width="43" height="43" viewBox="0 0 43 43" fill="none" xmlns="http://www.w3.org/2000/svg">
<path d="M21 7.875C12.25 7.875 4.7775 13.3175 1.75 21C4.7775 28.6825 12.25 34.125 21 34.125C29.75 34.125 37.2225 28.6825 40.25 21C37.2225 13.3175 29.75 7.875 21 7.875ZM21 29.75C16.17 29.75 12.25 25.83 12.25 21C12.25 16.17 16.17 12.25 21 12.25C25.83 12.25 29.75 16.17 29.75 21C29.75 25.83 25.83 29.75 21 29.75ZM21 15.75C18.095 15.75 15.75 18.095 15.75 21C15.75 23.905 18.095 26.25 21 26.25C23.905 26.25 26.25 23.905 26.25 21C26.25 18.095 23.905 15.75 21 15.75Z" fill="#7A4323"/>
<path d="M31.495 42.4845C37.1413 42.2455 41.7408 37.9363 42.4789 32.4099C42.6336 31.2963 41.6576 30.3091 40.5411 30.4658C36.0046 31.0778 32.2961 34.3279 31 38.6269C29.7039 34.3279 25.9955 31.0778 21.459 30.4658C20.3425 30.3091 19.3664 31.2962 19.5211 32.4098C20.2592 37.9362 24.8586 42.2455 30.505 42.4845V42.495H31H31.495V42.4845ZM26.1956 31.0426C26.6477 31.0426 27.0751 30.9604 27.4703 30.8088C27.7426 32.5182 29.2181 33.8283 31 33.8283C32.7813 33.8283 34.2563 32.5192 34.5294 30.8108C34.9258 30.9616 35.356 31.0426 35.8044 31.0426C37.7801 31.0426 39.3791 29.432 39.3791 27.4524C39.3791 26.318 38.8535 25.3193 38.0441 24.6667C38.8535 24.014 39.3791 23.0153 39.3791 21.881C39.3791 19.9013 37.7801 18.2907 35.8044 18.2907C35.3523 18.2907 34.925 18.373 34.5297 18.5245C34.2574 16.8151 32.7819 15.505 31 15.505C29.2188 15.505 27.7437 16.8142 27.4706 18.5226C27.0743 18.3717 26.644 18.2907 26.1956 18.2907C24.2199 18.2907 22.6209 19.9013 22.6209 21.881C22.6209 23.0153 23.1465 24.014 23.9559 24.6667C23.1465 25.3193 22.6209 26.318 22.6209 27.4524C22.6209 29.432 24.2199 31.0426 26.1956 31.0426ZM31 22.0664C32.4243 22.0664 33.5847 23.2291 33.5847 24.6667C33.5847 26.1042 32.4243 27.2669 31 27.2669C29.5757 27.2669 28.4153 26.1042 28.4153 24.6667C28.4153 23.2291 29.5757 22.0664 31 22.0664Z" fill="#7A4323" stroke="#FFEF9C" stroke-width="0.99"/>
<ellipse cx="31" cy="24.5" rx="3" ry="2.5" fill="#FFEF9C"/>
</svg>
