{"accessors" : [{"bufferView" : 0, "byteOffset" : 0, "componentType" : 5123, "count" : 4128, "type" : "SCALAR", "max" : [3453], "min" : [0]}, {"bufferView" : 1, "byteOffset" : 0, "componentType" : 5126, "count" : 3454, "type" : "VEC3", "max" : [0.9999997019767761, 1.6584726572036743, 1.024597406387329], "min" : [-0.9999990463256836, -1, -1.024596929550171], "name" : "POSITION"}, {"bufferView" : 1, "byteOffset" : 12, "componentType" : 5126, "count" : 3454, "type" : "VEC3", "max" : [1.0000042915344238, 0.7580536007881165, 1.0000044107437134], "min" : [-1.0000044107437134, -1.0000044107437134, -1.0000044107437134], "name" : "NORMAL"}, {"bufferView" : 1, "byteOffset" : 24, "componentType" : 5126, "count" : 3454, "type" : "VEC2", "max" : [1.0000001192092896, 1], "min" : [0, 0.18749988079071045], "name" : "TEXCOORD_0"}], "asset" : {"generator" : "Aspose.3D 22.7", "version" : "2.0"}, "buffers" : [{"uri" : "data:application/octet-stream;base64,", "byteLength" : 140360}], "bufferViews" : [{"buffer" : 0, "byteOffset" : 0, "byteLength" : 8256, "target" : 34963}, {"buffer" : 0, "byteOffset" : 8260, "byteLength" : 132096, "byteStride" : 32, "target" : 34962}], "materials" : [{"name" : "Material.003", "pbrMetallicRoughness" : {"baseColorFactor" : [0.7193942666053772, 0.8000000715255737, 0.7206497192382812, 1], "metallicFactor" : 0.07727272808551788, "roughnessFactor" : 0.06818181276321411}, "emissiveFactor" : [0.057437378073741385, 0.03196723225724818, 0], "alphaMode" : "OPAQUE", "doubleSided" : true}], "meshes" : [{"primitives" : [{"attributes" : {"POSITION" : 1, "NORMAL" : 2, "TEXCOORD_0" : 3}, "indices" : 0, "material" : 0, "mode" : 4}]}], "nodes" : [{"matrix" : [1, 0, 0, 0, 0, 1.3070541620254517, 0, 0, 0, 0, 0.7355142831802368, 0, 0, -0.4256221055984497, 4.107770919799805, 1], "mesh" : 0, "name" : "Sphere.001"}], "scene" : 0, "scenes" : [{"nodes" : [0]}]}